<svg width="100" height="100" viewBox="0 0 100 100" fill="none" xmlns="http://www.w3.org/2000/svg">
<path d="M87.91 39.48C87.9047 36.0179 86.5271 32.6991 84.079 30.251C81.6309 27.803 78.3121 26.4253 74.85 26.42C74.5 26.42 74.15 26.42 73.85 26.42C72.1691 24.3223 70.0383 22.6291 67.6151 21.4656C65.1918 20.3021 62.5381 19.698 59.85 19.698C57.1619 19.698 54.5082 20.3021 52.0849 21.4656C49.6617 22.6291 47.5309 24.3223 45.85 26.42C45.5 26.42 45.15 26.42 44.79 26.42C41.3375 26.4385 38.0326 27.8223 35.5969 30.2692C33.1612 32.7162 31.7926 36.0274 31.79 39.48C31.8023 40.2182 31.8759 40.954 32.01 41.68C31.93 41.78 31.83 41.88 31.76 41.98C30.9943 41.877 30.2227 41.8235 29.45 41.82C27.2616 41.766 25.0845 42.1503 23.0469 42.9505C21.0093 43.7506 19.1523 44.9503 17.5854 46.479C16.0185 48.0077 14.7733 49.8345 13.9231 51.8517C13.0729 53.869 12.6349 56.0359 12.6349 58.225C12.6349 60.4141 13.0729 62.581 13.9231 64.5983C14.7733 66.6155 16.0185 68.4423 17.5854 69.971C19.1523 71.4997 21.0093 72.6994 23.0469 73.4995C25.0845 74.2997 27.2616 74.684 29.45 74.63C31.436 74.6331 33.4055 74.2704 35.26 73.56C39.4847 77.2719 44.9162 79.3191 50.54 79.3191C56.1638 79.3191 61.5953 77.2719 65.82 73.56C67.6743 74.2713 69.644 74.6341 71.63 74.63C75.9797 74.6274 80.1506 72.899 83.2272 69.8242C86.3038 66.7495 88.0347 62.5797 88.04 58.23C88.0396 54.6015 86.8172 51.0789 84.57 48.23C86.7318 45.8296 87.9225 42.7103 87.91 39.48ZM71.5 70C69.0884 69.9959 66.7373 69.2448 64.77 67.85C63.0299 69.9883 60.8345 71.7111 58.3437 72.8928C55.853 74.0745 53.1299 74.6852 50.3731 74.6805C47.6163 74.6757 44.8953 74.0555 42.4087 72.8651C39.9221 71.6748 37.7326 69.9443 36 67.8C34.3357 68.9703 32.3951 69.6867 30.3696 69.8787C28.3441 70.0707 26.3035 69.7317 24.4489 68.895C22.5943 68.0583 20.9897 66.7528 19.7933 65.1072C18.5968 63.4616 17.8498 61.5326 17.6257 59.5104C17.4017 57.4882 17.7084 55.4425 18.5157 53.5749C19.3229 51.7073 20.6029 50.0822 22.2293 48.8599C23.8558 47.6375 25.7727 46.8601 27.7912 46.6041C29.8096 46.3481 31.8599 46.6224 33.74 47.4C33.82 47.24 33.92 47.1 34 46.95C34.8095 45.4536 35.8187 44.0743 37 42.85C38.721 41.0437 40.7906 39.6055 43.0836 38.6223C45.3765 37.6391 47.8451 37.1314 50.34 37.13C53.7951 37.1337 57.1815 38.0955 60.1226 39.9086C63.0638 41.7216 65.4445 44.3149 67 47.4C67.8438 47.0655 68.7227 46.8273 69.62 46.69L71.46 46.51C74.575 46.5047 77.5645 47.737 79.7708 49.9359C81.9772 52.1348 83.2197 55.12 83.225 58.235C83.2303 61.35 81.998 64.3395 79.7991 66.5458C77.6003 68.7522 74.615 69.9947 71.5 70ZM81.11 45C78.3247 42.9493 74.9588 41.839 71.5 41.83C70.7274 41.8332 69.9557 41.8866 69.19 41.99C65.5654 37.0227 60.1177 33.6967 54.043 32.7424C47.9683 31.7881 41.7632 33.2834 36.79 36.9C37.3307 35.2237 38.3882 33.7616 39.8109 32.7232C41.2337 31.6849 42.9487 31.1237 44.71 31.12C45.8047 31.1152 46.8893 31.3294 47.9 31.75C49.0052 29.5461 50.7016 27.6931 52.7996 26.3981C54.8977 25.1031 57.3145 24.4173 59.78 24.4173C62.2455 24.4173 64.6624 25.1031 66.7604 26.3981C68.8584 27.6931 70.5548 29.5461 71.66 31.75C73.4048 31.0259 75.3436 30.9149 77.1597 31.4351C78.9757 31.9552 80.5617 33.0758 81.6587 34.6138C82.7556 36.1518 83.2985 38.0163 83.1989 39.9028C83.0992 41.7892 82.3629 43.5861 81.11 45Z" fill="#000000"/>
</svg>
