<svg width="100" height="100" viewBox="0 0 100 100" fill="none" xmlns="http://www.w3.org/2000/svg">
<path fill-rule="evenodd" clip-rule="evenodd" d="M50.21 29.33C46.214 29.328 42.3071 30.5113 38.9837 32.7302C35.6603 34.949 33.0697 38.1037 31.5396 41.7952C30.0094 45.4867 29.6086 49.549 30.3877 53.4684C31.1668 57.3877 33.0908 60.9879 35.9165 63.8136C38.7421 66.6392 42.3423 68.5632 46.2616 69.3424C50.181 70.1215 54.2434 69.7206 57.9348 68.1905C61.6263 66.6603 64.781 64.0697 66.9999 60.7463C69.2187 57.4229 70.402 53.516 70.4 49.52C70.3921 44.1677 68.2624 39.0369 64.4777 35.2523C60.6931 31.4676 55.5623 29.3379 50.21 29.33ZM50.21 63.95C47.3556 63.952 44.5647 63.1074 42.1904 61.523C39.8161 59.9386 37.965 57.6856 36.8713 55.0491C35.7776 52.4125 35.4904 49.5108 36.0461 46.711C36.6017 43.9112 37.9752 41.3391 39.9929 39.32C42.0106 37.3009 44.5818 35.9256 47.3812 35.368C50.1806 34.8104 53.0825 35.0956 55.7198 36.1875C58.3571 37.2793 60.6114 39.1289 62.1974 41.5021C63.7835 43.8753 64.63 46.6656 64.63 49.52C64.6366 51.4183 64.2685 53.2993 63.5469 55.0552C62.8253 56.811 61.7644 58.4072 60.4248 59.7524C59.0853 61.0975 57.4935 62.1651 55.7406 62.8939C53.9878 63.6228 52.1084 63.9987 50.21 64V63.95Z" fill="#000000"/>
<path fill-rule="evenodd" clip-rule="evenodd" d="M50.21 12C49.8309 12 49.4556 12.0748 49.1055 12.2202C48.7555 12.3655 48.4375 12.5786 48.17 12.8471C47.9024 13.1156 47.6905 13.4342 47.5463 13.7848C47.4022 14.1354 47.3287 14.511 47.33 14.89V20.66C47.3733 21.3958 47.6961 22.0872 48.2324 22.5928C48.7687 23.0985 49.4779 23.3801 50.215 23.3801C50.952 23.3801 51.6612 23.0985 52.1975 22.5928C52.7338 22.0872 53.0566 21.3958 53.1 20.66V14.91C53.1026 14.5288 53.0298 14.1508 52.8858 13.7979C52.7417 13.445 52.5292 13.124 52.2606 12.8535C51.992 12.583 51.6725 12.3684 51.3206 12.2219C50.9686 12.0754 50.5912 12 50.21 12Z" fill="#000000"/>
<path fill-rule="evenodd" clip-rule="evenodd" d="M50.21 75.48C49.8309 75.48 49.4556 75.5548 49.1055 75.7002C48.7555 75.8455 48.4375 76.0586 48.17 76.3271C47.9024 76.5956 47.6905 76.9142 47.5463 77.2648C47.4022 77.6154 47.3287 77.991 47.33 78.37V84.14C47.3733 84.8758 47.6961 85.5672 48.2324 86.0728C48.7687 86.5785 49.4779 86.8601 50.215 86.8601C50.952 86.8601 51.6612 86.5785 52.1975 86.0728C52.7338 85.5672 53.0566 84.8758 53.1 84.14V78.37C53.1 77.6035 52.7955 76.8684 52.2535 76.3265C51.7115 75.7845 50.9764 75.48 50.21 75.48Z" fill="#000000"/>
<path fill-rule="evenodd" clip-rule="evenodd" d="M76.72 23C76.1787 22.4632 75.4473 22.162 74.685 22.162C73.9227 22.162 73.1912 22.4632 72.65 23L68.57 27.08C68.0289 27.621 67.725 28.3549 67.725 29.12C67.725 29.8851 68.0289 30.619 68.57 31.16C69.111 31.701 69.8448 32.005 70.61 32.005C71.3751 32.005 72.1089 31.701 72.65 31.16L76.72 27.08C76.9885 26.8124 77.2015 26.4945 77.3469 26.1444C77.4922 25.7944 77.567 25.419 77.567 25.04C77.567 24.661 77.4922 24.2856 77.3469 23.9356C77.2015 23.5855 76.9885 23.2676 76.72 23Z" fill="#000000"/>
<path fill-rule="evenodd" clip-rule="evenodd" d="M31.86 67.88C31.3183 67.3402 30.5847 67.0371 29.82 67.0371C29.0553 67.0371 28.3217 67.3402 27.78 67.88L23.7 72C23.2767 72.5584 23.0715 73.252 23.1229 73.9508C23.1742 74.6496 23.4786 75.3058 23.9789 75.7963C24.4793 76.2869 25.1413 76.5782 25.841 76.6157C26.5407 76.6532 27.2301 76.4343 27.78 76L31.86 72C32.1321 71.7304 32.3481 71.4095 32.4955 71.0559C32.6429 70.7024 32.7188 70.3231 32.7188 69.94C32.7188 69.5569 32.6429 69.1777 32.4955 68.8241C32.3481 68.4705 32.1321 68.1496 31.86 67.88Z" fill="#000000"/>
<path fill-rule="evenodd" clip-rule="evenodd" d="M12.71 49.52C12.71 50.2865 13.0145 51.0216 13.5565 51.5635C14.0985 52.1055 14.8335 52.41 15.6 52.41H21.37C22.1058 52.3667 22.7972 52.0438 23.3029 51.5076C23.8085 50.9713 24.0901 50.2621 24.0901 49.525C24.0901 48.7879 23.8085 48.0787 23.3029 47.5425C22.7972 47.0062 22.1058 46.6833 21.37 46.64H15.6C15.221 46.6387 14.8454 46.7122 14.4948 46.8564C14.1442 47.0005 13.8256 47.2124 13.5571 47.48C13.2886 47.7476 13.0756 48.0655 12.9302 48.4156C12.7848 48.7656 12.71 49.141 12.71 49.52Z" fill="#000000"/>
<path fill-rule="evenodd" clip-rule="evenodd" d="M76.17 49.52C76.17 50.2865 76.4745 51.0216 77.0164 51.5635C77.5584 52.1055 78.2935 52.41 79.06 52.41H84.83C85.5658 52.3667 86.2572 52.0438 86.7628 51.5075C87.2684 50.9713 87.5501 50.2621 87.5501 49.525C87.5501 48.7879 87.2684 48.0787 86.7628 47.5424C86.2572 47.0062 85.5658 46.6833 84.83 46.64H79.06C78.2952 46.64 77.5617 46.9431 77.02 47.4829C76.4783 48.0227 76.1726 48.7553 76.17 49.52Z" fill="#000000"/>
<path fill-rule="evenodd" clip-rule="evenodd" d="M23.69 23C23.1526 23.543 22.8511 24.2761 22.8511 25.04C22.8511 25.8039 23.1526 26.537 23.69 27.08L27.77 31.15C28.0372 31.4179 28.3546 31.6305 28.704 31.7758C29.0534 31.921 29.428 31.996 29.8064 31.9965C30.1848 31.9969 30.5596 31.9229 30.9094 31.7785C31.2592 31.6341 31.5771 31.4222 31.845 31.155C32.1129 30.8878 32.3255 30.5704 32.4707 30.221C32.616 29.8715 32.691 29.4969 32.6914 29.1185C32.6919 28.7401 32.6178 28.3654 32.4734 28.0156C32.3291 27.6658 32.1172 27.3479 31.85 27.08L27.77 23C27.5024 22.7315 27.1845 22.5185 26.8344 22.3731C26.4843 22.2278 26.109 22.1529 25.73 22.1529C25.3509 22.1529 24.9756 22.2278 24.6255 22.3731C24.2755 22.5185 23.9575 22.7315 23.69 23Z" fill="#000000"/>
<path fill-rule="evenodd" clip-rule="evenodd" d="M68.57 67.88C68.0302 68.4217 67.7271 69.1553 67.7271 69.92C67.7271 70.6847 68.0302 71.4183 68.57 71.96L72.65 76C73.1999 76.4343 73.8893 76.6532 74.589 76.6157C75.2887 76.5782 75.9507 76.2869 76.4511 75.7963C76.9514 75.3058 77.2558 74.6496 77.3071 73.9508C77.3585 73.252 77.1533 72.5584 76.73 72L72.65 67.92C72.3851 67.6489 72.0692 67.4327 71.7206 67.2839C71.3719 67.1351 70.9973 67.0566 70.6183 67.0529C70.2392 67.0492 69.8632 67.1203 69.5117 67.2622C69.1602 67.4042 68.8402 67.6141 68.57 67.88Z" fill="#000000"/>
</svg>
