<svg width="100" height="100" viewBox="0 0 100 100" fill="none" xmlns="http://www.w3.org/2000/svg">
<path d="M43.0001 21.88C43.3082 21.88 43.6133 21.8191 43.8979 21.7009C44.1824 21.5827 44.4408 21.4094 44.6582 21.1911C44.8757 20.9727 45.0478 20.7136 45.1648 20.4286C45.2818 20.1435 45.3414 19.8381 45.3401 19.53V14.84C45.3401 14.2194 45.0935 13.6242 44.6547 13.1854C44.2158 12.7465 43.6207 12.5 43.0001 12.5C42.3794 12.5 41.7843 12.7465 41.3454 13.1854C40.9066 13.6242 40.6601 14.2194 40.6601 14.84V19.53C40.6587 19.8381 40.7183 20.1435 40.8353 20.4286C40.9523 20.7136 41.1245 20.9727 41.3419 21.1911C41.5593 21.4094 41.8177 21.5827 42.1023 21.7009C42.3868 21.8191 42.6919 21.88 43.0001 21.88Z" fill="#000000"/>
<path d="M61.2 28.05L64.51 24.74C64.728 24.5227 64.901 24.2645 65.0193 23.9803C65.1375 23.6961 65.1986 23.3914 65.199 23.0835C65.1995 22.7757 65.1393 22.4708 65.022 22.1862C64.9046 21.9017 64.7323 21.643 64.515 21.425C64.2976 21.207 64.0395 21.034 63.7553 20.9157C63.4711 20.7975 63.1663 20.7364 62.8585 20.7359C62.5507 20.7355 62.2458 20.7956 61.9612 20.913C61.6766 21.0304 61.418 21.2027 61.2 21.42L57.88 24.74C57.4411 25.1803 57.195 25.7769 57.1959 26.3985C57.1969 27.0202 57.4447 27.6161 57.885 28.055C58.3252 28.4939 58.9218 28.74 59.5435 28.7391C60.1652 28.7381 60.7611 28.4903 61.2 28.05Z" fill="#000000"/>
<path d="M14.85 45.31H19.53C20.1506 45.31 20.7458 45.0635 21.1846 44.6246C21.6235 44.1858 21.87 43.5906 21.87 42.97C21.87 42.3494 21.6235 41.7542 21.1846 41.3154C20.7458 40.8765 20.1506 40.63 19.53 40.63H14.85C14.2294 40.63 13.6342 40.8765 13.1954 41.3154C12.7565 41.7542 12.51 42.3494 12.51 42.97C12.51 43.5906 12.7565 44.1858 13.1954 44.6246C13.6342 45.0635 14.2294 45.31 14.85 45.31Z" fill="#000000"/>
<path d="M64.0601 43C64.0627 43.6215 64.3115 44.2167 64.7519 44.6552C65.1923 45.0938 65.7885 45.34 66.4101 45.34H71.0901C71.7107 45.34 72.3059 45.0935 72.7447 44.6546C73.1835 44.2158 73.4301 43.6206 73.4301 43C73.4301 42.3794 73.1835 41.7842 72.7447 41.3454C72.3059 40.9065 71.7107 40.66 71.0901 40.66H66.4101C66.1019 40.6587 65.7966 40.7182 65.5115 40.8352C65.2265 40.9522 64.9673 41.1244 64.749 41.3418C64.5306 41.5592 64.3574 41.8176 64.2391 42.1022C64.1209 42.3868 64.0601 42.6919 64.0601 43Z" fill="#000000"/>
<path d="M24.74 28.05C25.1789 28.4889 25.7742 28.7355 26.395 28.7355C27.0157 28.7355 27.611 28.4889 28.05 28.05C28.4889 27.6111 28.7355 27.0157 28.7355 26.395C28.7355 25.7743 28.4889 25.1789 28.05 24.74L24.74 21.42C24.5258 21.1855 24.2663 20.9969 23.9772 20.8655C23.6881 20.7341 23.3754 20.6626 23.0579 20.6554C22.7405 20.6482 22.4248 20.7055 22.1301 20.8237C21.8354 20.9419 21.5676 21.1186 21.3431 21.3431C21.1185 21.5677 20.9418 21.8354 20.8236 22.1301C20.7054 22.4249 20.6482 22.7405 20.6554 23.058C20.6626 23.3755 20.734 23.6882 20.8654 23.9773C20.9968 24.2664 21.1855 24.5258 21.42 24.74L24.74 28.05Z" fill="#000000"/>
<path d="M71.09 50C70.3168 49.997 69.5445 50.0539 68.78 50.17C66.3537 46.8654 63.097 44.2608 59.34 42.62C59.2896 38.2731 57.5145 34.1243 54.4051 31.0862C51.2958 28.0481 47.1069 26.3696 42.76 26.42C38.4131 26.4704 34.2643 28.2455 31.2262 31.3549C28.1881 34.4642 26.5096 38.6531 26.56 43C26.5739 45.4615 27.1521 47.8869 28.25 50.09C23.9489 50.2382 19.8789 52.0733 16.9199 55.1984C13.961 58.3235 12.3508 62.4875 12.4375 66.7903C12.5242 71.0931 14.3009 75.1889 17.3833 78.1923C20.4658 81.1956 24.6064 82.8652 28.91 82.84C30.8992 82.843 32.872 82.4803 34.73 81.77C38.9522 85.4832 44.3823 87.5313 50.005 87.5313C55.6277 87.5313 61.0578 85.4832 65.28 81.77C67.1345 82.4804 69.1041 82.8431 71.09 82.84C73.2784 82.894 75.4555 82.5097 77.4931 81.7095C79.5307 80.9094 81.3877 79.7097 82.9546 78.181C84.5215 76.6523 85.7667 74.8255 86.6169 72.8083C87.4671 70.791 87.9051 68.6241 87.9051 66.435C87.9051 64.2459 87.4671 62.079 86.6169 60.0617C85.7667 58.0445 84.5215 56.2177 82.9546 54.689C81.3877 53.1604 79.5307 51.9606 77.4931 51.1605C75.4555 50.3603 73.2784 49.976 71.09 50.03V50ZM43 31.25C45.7738 31.2605 48.4536 32.257 50.5603 34.0615C52.667 35.8659 54.0634 38.3607 54.5 41.1C50.5366 40.2842 46.4278 40.5327 42.5917 41.8202C38.7555 43.1077 35.3287 45.3883 32.66 48.43C31.7528 46.7626 31.2686 44.8981 31.25 43C31.246 41.4559 31.5473 39.9262 32.1364 38.4988C32.7254 37.0714 33.5908 35.7745 34.6827 34.6827C35.7745 33.5908 37.0714 32.7254 38.4988 32.1364C39.9262 31.5473 41.4559 31.246 43 31.25ZM71.09 78.13C68.6806 78.1318 66.3297 77.3877 64.36 76C62.6234 78.1342 60.433 79.8546 57.9482 81.0362C55.4634 82.2177 52.7465 82.8308 49.995 82.8308C47.2435 82.8308 44.5266 82.2177 42.0418 81.0362C39.557 79.8546 37.3666 78.1342 35.63 76C34.124 77.0586 32.3897 77.7472 30.5677 78.01C28.7457 78.2728 26.8875 78.1024 25.1437 77.5126C23.4 76.9227 21.8198 75.9301 20.5315 74.6152C19.2433 73.3003 18.2831 71.7002 17.729 69.9447C17.1749 68.1893 17.0425 66.3279 17.3425 64.5117C17.6425 62.6955 18.3664 60.9756 19.4556 59.4916C20.5447 58.0075 21.9684 56.8012 23.6111 55.9704C25.2538 55.1396 27.0692 54.7078 28.91 54.71C30.0096 54.7242 31.1012 54.8994 32.15 55.23C32.564 55.3275 32.9715 55.4511 33.37 55.6C34.9565 52.5447 37.3397 49.9753 40.2673 48.1638C43.1949 46.3523 46.5578 45.3663 50 45.31C51.4466 45.324 52.8866 45.5087 54.29 45.86C55.8122 46.2179 57.2812 46.7725 58.66 47.51C62.0925 49.3141 64.8859 52.1319 66.66 55.58C68.2619 54.9174 69.9909 54.6183 71.7223 54.7045C73.4537 54.7907 75.1445 55.2598 76.6727 56.0782C78.201 56.8966 79.5286 58.0439 80.56 59.4372C81.5914 60.8306 82.3008 62.4354 82.6371 64.1361C82.9735 65.8367 82.9284 67.5907 82.5051 69.2718C82.0818 70.9529 81.2908 72.5192 80.1892 73.8577C79.0876 75.1962 77.7027 76.2737 76.1345 77.0125C74.5662 77.7513 72.8536 78.1329 71.12 78.13H71.09Z" fill="#000000"/>
</svg>
