<svg width="100" height="100" viewBox="0 0 100 100" fill="none" xmlns="http://www.w3.org/2000/svg">

<path fill-rule="evenodd" clip-rule="evenodd" d="M68.3701 38C68.3782 37.6038 68.3062 37.21 68.1583 36.8423C68.0105 36.4747 67.7898 36.1407 67.5096 35.8605C67.2294 35.5803 66.8954 35.3596 66.5277 35.2117C66.16 35.0638 65.7663 34.9918 65.3701 35H12.3301C11.9289 34.9766 11.5272 35.0354 11.1495 35.1729C10.7719 35.3103 10.4263 35.5234 10.134 35.7992C9.84171 36.075 9.60883 36.4075 9.44965 36.7765C9.29048 37.1455 9.20837 37.5431 9.20837 37.945C9.20837 38.3469 9.29048 38.7445 9.44965 39.1135C9.60883 39.4825 9.84171 39.815 10.134 40.0908C10.4263 40.3666 10.7719 40.5797 11.1495 40.7171C11.5272 40.8546 11.9289 40.9134 12.3301 40.89H65.4201C66.1929 40.8927 66.9358 40.591 67.4879 40.0502C68.04 39.5093 68.3569 38.7728 68.3701 38Z" fill="#000000"/>
<path fill-rule="evenodd" clip-rule="evenodd" d="M21.83 29H74.92C75.3074 29 75.691 28.9237 76.0489 28.7754C76.4068 28.6272 76.732 28.4099 77.006 28.1359C77.2799 27.862 77.4972 27.5368 77.6455 27.1789C77.7937 26.821 77.87 26.4374 77.87 26.05C77.87 25.6626 77.7937 25.279 77.6455 24.9211C77.4972 24.5631 77.2799 24.2379 77.006 23.964C76.732 23.6901 76.4068 23.4728 76.0489 23.3245C75.691 23.1763 75.3074 23.1 74.92 23.1H21.83C21.4426 23.1 21.059 23.1763 20.7011 23.3245C20.3432 23.4728 20.018 23.6901 19.744 23.964C19.4701 24.2379 19.2528 24.5631 19.1046 24.9211C18.9563 25.279 18.88 25.6626 18.88 26.05C18.88 26.4374 18.9563 26.821 19.1046 27.1789C19.2528 27.5368 19.4701 27.862 19.744 28.1359C20.018 28.4099 20.3432 28.6272 20.7011 28.7754C21.059 28.9237 21.4426 29 21.83 29Z" fill="#000000"/>
<path fill-rule="evenodd" clip-rule="evenodd" d="M74.92 47.05H21.83C21.3971 46.97 20.952 46.9862 20.5261 47.0974C20.1003 47.2087 19.7041 47.4124 19.3657 47.6939C19.0274 47.9754 18.7551 48.328 18.5683 48.7265C18.3814 49.1251 18.2845 49.5598 18.2845 50C18.2845 50.4402 18.3814 50.8749 18.5683 51.2735C18.7551 51.672 19.0274 52.0246 19.3657 52.3061C19.7041 52.5876 20.1003 52.7913 20.5261 52.9026C20.952 53.0138 21.3971 53.03 21.83 52.95H74.92C75.3528 53.03 75.798 53.0138 76.2238 52.9026C76.6497 52.7913 77.0459 52.5876 77.3842 52.3061C77.7226 52.0246 77.9949 51.672 78.1817 51.2735C78.3686 50.8749 78.4654 50.4402 78.4654 50C78.4654 49.5598 78.3686 49.1251 78.1817 48.7265C77.9949 48.328 77.7226 47.9754 77.3842 47.6939C77.0459 47.4124 76.6497 47.2087 76.2238 47.0974C75.798 46.9862 75.3528 46.97 74.92 47.05Z" fill="#000000"/>
<path fill-rule="evenodd" clip-rule="evenodd" d="M87.67 59H34.58C33.7976 59 33.0473 59.3108 32.494 59.864C31.9408 60.4173 31.63 61.1676 31.63 61.95C31.63 62.7324 31.9408 63.4827 32.494 64.036C33.0473 64.5892 33.7976 64.9 34.58 64.9H87.67C88.4524 64.9 89.2027 64.5892 89.756 64.036C90.3092 63.4827 90.62 62.7324 90.62 61.95C90.62 61.1676 90.3092 60.4173 89.756 59.864C89.2027 59.3108 88.4524 59 87.67 59Z" fill="#000000"/>
<path fill-rule="evenodd" clip-rule="evenodd" d="M74.92 71H21.83C21.3971 70.92 20.952 70.9362 20.5261 71.0475C20.1003 71.1587 19.7041 71.3624 19.3657 71.6439C19.0274 71.9254 18.7551 72.278 18.5683 72.6765C18.3814 73.0751 18.2845 73.5098 18.2845 73.95C18.2845 74.3902 18.3814 74.825 18.5683 75.2235C18.7551 75.622 19.0274 75.9746 19.3657 76.2561C19.7041 76.5377 20.1003 76.7413 20.5261 76.8526C20.952 76.9638 21.3971 76.98 21.83 76.9H74.92C75.6093 76.7726 76.2323 76.4077 76.6807 75.8688C77.129 75.3299 77.3745 74.651 77.3745 73.95C77.3745 73.249 77.129 72.5701 76.6807 72.0312C76.2323 71.4923 75.6093 71.1275 74.92 71Z" fill="#000000"/>
</svg>
