<svg width="100" height="100" viewBox="0 0 100 100" fill="none" xmlns="http://www.w3.org/2000/svg">
<path fill-rule="evenodd" clip-rule="evenodd" d="M71.05 23.57C70.2737 23.5715 69.4984 23.6283 68.73 23.74C66.5621 20.7914 63.7289 18.3959 60.4608 16.7484C57.1927 15.1009 53.582 14.2479 49.9221 14.2586C46.2623 14.2693 42.6566 15.1435 39.3982 16.8101C36.1398 18.4767 33.3207 20.8887 31.17 23.85C30.4044 23.7463 29.6327 23.6928 28.86 23.69C24.5078 23.7086 20.3413 25.4553 17.2769 28.5459C14.2126 31.6365 12.5015 35.8178 12.52 40.17C12.5386 44.5222 14.2853 48.6888 17.3759 51.7531C20.4665 54.8175 24.6478 56.5286 29 56.51C30.9911 56.5039 32.9641 56.131 34.82 55.41C39.0522 59.1128 44.4887 61.1462 50.112 61.1297C55.7353 61.1131 61.1598 59.0477 65.37 55.32C67.2273 56.032 69.201 56.3915 71.19 56.38C75.4709 56.2632 79.5366 54.4775 82.519 51.4043C85.5014 48.331 87.1642 44.2136 87.1524 39.9311C87.1407 35.6486 85.4553 31.5404 82.4561 28.4835C79.4569 25.4266 75.3815 23.6633 71.1 23.57H71.05ZM71.13 51.7C68.7184 51.696 66.366 50.9526 64.39 49.57C62.6615 51.7122 60.4766 53.4417 57.9948 54.6324C55.513 55.8231 52.7967 56.4449 50.0441 56.4526C47.2915 56.4602 44.5718 55.8535 42.0834 54.6767C39.595 53.4999 37.4005 51.7826 35.66 49.65C33.999 50.8309 32.0587 51.5582 30.0306 51.7602C28.0026 51.9621 25.957 51.6318 24.0956 50.8017C22.2343 49.9716 20.6216 48.6704 19.4167 47.0267C18.2118 45.3829 17.4564 43.4534 17.225 41.4285C16.9936 39.4036 17.2943 37.3534 18.0973 35.4802C18.9003 33.607 20.1778 31.9755 21.8039 30.7469C23.43 29.5183 25.3484 28.735 27.3697 28.4742C29.391 28.2134 31.4454 28.4843 33.33 29.26C34.8711 26.1725 37.2397 23.574 40.1717 21.7544C43.1036 19.9348 46.4835 18.9657 49.9342 18.9554C53.3849 18.945 56.7706 19.8937 59.7134 21.6956C62.6563 23.4976 65.0405 26.0818 66.6 29.16C68.3771 28.4203 70.3091 28.1301 72.225 28.315C74.1409 28.4999 75.9817 29.1542 77.5845 30.2201C79.1873 31.286 80.5026 32.7305 81.4141 34.4259C82.3255 36.1213 82.805 38.0152 82.81 39.94C82.8153 41.4791 82.5174 43.0041 81.9332 44.4281C81.3491 45.852 80.4902 47.147 79.4056 48.239C78.3211 49.331 77.032 50.1987 75.6121 50.7926C74.1921 51.3864 72.6691 51.6948 71.13 51.7Z" fill="#000000"/>
<path fill-rule="evenodd" clip-rule="evenodd" d="M45.4301 81.07C45.4301 82.3139 45.9242 83.5068 46.8037 84.3863C47.6833 85.2659 48.8762 85.76 50.1201 85.76C51.3639 85.76 52.5568 85.2659 53.4364 84.3863C54.3159 83.5068 54.8101 82.3139 54.8101 81.07C54.8101 78.48 50.0901 71.71 50.0901 71.71C50.0901 71.71 45.4301 78.48 45.4301 81.07Z" fill="#000000"/>
<path fill-rule="evenodd" clip-rule="evenodd" d="M17 68.26C16.9707 68.8934 17.0702 69.5263 17.2924 70.1202C17.5147 70.7141 17.8551 71.2567 18.293 71.7154C18.7309 72.174 19.2573 72.5391 19.8403 72.7885C20.4233 73.0379 21.0509 73.1665 21.685 73.1665C22.3191 73.1665 22.9467 73.0379 23.5297 72.7885C24.1127 72.5391 24.6391 72.174 25.077 71.7154C25.5149 71.2567 25.8553 70.7141 26.0775 70.1202C26.2998 69.5263 26.3993 68.8934 26.37 68.26C26.37 65.67 21.66 58.9 21.66 58.9C21.66 58.9 17 65.67 17 68.26Z" fill="#000000"/>
<path fill-rule="evenodd" clip-rule="evenodd" d="M73.78 68.09C73.78 69.3339 74.2742 70.5268 75.1537 71.4063C76.0332 72.2859 77.2262 72.78 78.47 72.78C79.7139 72.78 80.9068 72.2859 81.7864 71.4063C82.6659 70.5268 83.16 69.3339 83.16 68.09C83.16 65.5 78.44 58.73 78.44 58.73C78.44 58.73 73.78 65.5 73.78 68.09Z" fill="#000000"/>
<path fill-rule="evenodd" clip-rule="evenodd" d="M59.6 70.48C59.5707 71.1135 59.6702 71.7463 59.8924 72.3402C60.1147 72.9341 60.455 73.4768 60.893 73.9354C61.3309 74.394 61.8573 74.7591 62.4403 75.0085C63.0233 75.2579 63.6508 75.3865 64.285 75.3865C64.9191 75.3865 65.5466 75.2579 66.1297 75.0085C66.7127 74.7591 67.2391 74.394 67.677 73.9354C68.1149 73.4768 68.4553 72.9341 68.6775 72.3402C68.8998 71.7463 68.9992 71.1135 68.97 70.48C68.97 67.89 64.26 61.12 64.26 61.12C64.26 61.12 59.59 67.89 59.6 70.48Z" fill="#000000"/>
<path fill-rule="evenodd" clip-rule="evenodd" d="M31.21 70.56C31.1807 71.1935 31.2802 71.8263 31.5024 72.4202C31.7246 73.0141 32.065 73.5568 32.5029 74.0154C32.9409 74.474 33.4673 74.8391 34.0503 75.0885C34.6333 75.3379 35.2608 75.4665 35.895 75.4665C36.5291 75.4665 37.1566 75.3379 37.7396 75.0885C38.3227 74.8391 38.849 74.474 39.287 74.0154C39.7249 73.5568 40.0653 73.0141 40.2875 72.4202C40.5097 71.8263 40.6092 71.1935 40.58 70.56C40.58 67.97 35.87 61.19 35.87 61.19C35.87 61.19 31.2 68 31.21 70.56Z" fill="#000000"/>
</svg>
