<svg width="100" height="100" viewBox="0 0 100 100" fill="none" xmlns="http://www.w3.org/2000/svg">
<path fill-rule="evenodd" clip-rule="evenodd" d="M71.6 35.46C70.827 35.4619 70.055 35.5187 69.29 35.63C67.132 32.6732 64.3062 30.2677 61.0428 28.6094C57.7794 26.9511 54.1706 26.0867 50.51 26.0867C46.8494 26.0867 43.2406 26.9511 39.9772 28.6094C36.7138 30.2677 33.8881 32.6732 31.73 35.63C29.253 35.2767 26.728 35.4949 24.3483 36.2679C21.9685 37.0408 19.7972 38.348 18.0006 40.0894C16.2039 41.8308 14.8295 43.9602 13.9826 46.3146C13.1357 48.669 12.8387 51.186 13.1144 53.6728C13.3901 56.1597 14.2312 58.5505 15.5732 60.6622C16.9153 62.7739 18.7227 64.5506 20.8572 65.8561C22.9917 67.1617 25.3966 67.9616 27.8878 68.1945C30.379 68.4274 32.8905 68.0872 35.23 67.2C39.4522 70.9132 44.8823 72.9613 50.505 72.9613C56.1277 72.9613 61.5578 70.9132 65.78 67.2C67.638 67.9103 69.6108 68.273 71.6 68.27C73.7884 68.324 75.9655 67.9397 78.0031 67.1395C80.0408 66.3394 81.8977 65.1397 83.4646 63.611C85.0315 62.0823 86.2767 60.2555 87.1269 58.2383C87.9771 56.221 88.4151 54.0541 88.4151 51.865C88.4151 49.6759 87.9771 47.509 87.1269 45.4917C86.2767 43.4745 85.0315 41.6477 83.4646 40.119C81.8977 38.5903 80.0408 37.3906 78.0031 36.5905C75.9655 35.7903 73.7884 35.406 71.6 35.46ZM71.6 63.59C69.1884 63.5859 66.8373 62.8348 64.87 61.44C63.1344 63.574 60.9449 65.2943 58.4609 66.4759C55.9769 67.6574 53.2607 68.2705 50.51 68.2705C47.7593 68.2705 45.0432 67.6574 42.5591 66.4759C40.0751 65.2943 37.8857 63.574 36.15 61.44C34.6444 62.4984 32.9105 63.1869 31.089 63.4499C29.2674 63.7128 27.4096 63.5427 25.6661 62.9534C23.9226 62.364 22.3426 61.372 21.0542 60.0579C19.7658 58.7437 18.8052 57.1443 18.2505 55.3895C17.6958 53.6347 17.5625 51.7738 17.8615 49.9579C18.1604 48.1419 18.8832 46.422 19.9711 44.9376C21.0591 43.4532 22.4816 42.2462 24.1233 41.4143C25.765 40.5825 27.5796 40.1494 29.42 40.15C30.9476 40.1495 32.4601 40.452 33.87 41.04C35.4177 37.9542 37.7932 35.3597 40.7309 33.5465C43.6687 31.7334 47.0528 30.7732 50.505 30.7732C53.9572 30.7732 57.3414 31.7334 60.2791 33.5465C63.2168 35.3597 65.5923 37.9542 67.14 41.04C68.7419 40.3774 70.4709 40.0783 72.2023 40.1645C73.9338 40.2507 75.6245 40.7198 77.1527 41.5382C78.681 42.3566 80.0086 43.5038 81.04 44.8972C82.0714 46.2906 82.7808 47.8954 83.1171 49.5961C83.4535 51.2967 83.4084 53.0507 82.9851 54.7318C82.5618 56.4129 81.7708 57.9792 80.6692 59.3177C79.5676 60.6562 78.1827 61.7337 76.6145 62.4725C75.0462 63.2113 73.3336 63.5929 71.6 63.59Z" fill="#000000"/>
</svg>
