<svg width="100" height="100" viewBox="0 0 100 100" fill="none" xmlns="http://www.w3.org/2000/svg">
<path d="M28.91 55.6C30.8965 55.5997 32.866 55.2336 34.72 54.52C38.9393 58.2392 44.3705 60.2913 49.995 60.2913C55.6195 60.2913 61.0507 58.2392 65.27 54.52C67.1274 55.2335 69.1002 55.5996 71.09 55.6C73.2784 55.654 75.4555 55.2697 77.4931 54.4695C79.5307 53.6694 81.3877 52.4696 82.9546 50.9409C84.5215 49.4123 85.7667 47.5855 86.6169 45.5683C87.4671 43.551 87.905 41.3841 87.905 39.195C87.905 37.0059 87.4671 34.839 86.6169 32.8217C85.7667 30.8045 84.5215 28.9777 82.9546 27.449C81.3877 25.9203 79.5307 24.7206 77.4931 23.9205C75.4555 23.1203 73.2784 22.736 71.09 22.79C70.3172 22.7882 69.5452 22.8417 68.78 22.95C66.6219 19.9932 63.7962 17.5877 60.5328 15.9294C57.2694 14.2711 53.6606 13.4067 50 13.4067C46.3394 13.4067 42.7305 14.2711 39.4671 15.9294C36.2037 17.5877 33.378 19.9932 31.22 22.95C28.987 22.6261 26.7111 22.7662 24.5347 23.3616C22.3583 23.9569 20.328 24.9947 18.5707 26.4101C16.8135 27.8255 15.367 29.5881 14.3217 31.5878C13.2763 33.5874 12.6546 35.7812 12.4954 38.0319C12.3361 40.2827 12.6428 42.5421 13.3962 44.669C14.1495 46.796 15.3334 48.7446 16.8739 50.3934C18.4144 52.0421 20.2783 53.3554 22.3492 54.2513C24.4202 55.1471 26.6536 55.6063 28.91 55.6ZM28.91 27.47C30.4371 27.4744 31.9487 27.7767 33.36 28.36C34.9103 25.2772 37.2867 22.6858 40.2241 20.8751C43.1615 19.0643 46.5443 18.1055 49.995 18.1055C53.4456 18.1055 56.8284 19.0643 59.7658 20.8751C62.7032 22.6858 65.0797 25.2772 66.63 28.36C68.2319 27.6974 69.9609 27.3983 71.6923 27.4845C73.4237 27.5706 75.1145 28.0398 76.6427 28.8582C78.1709 29.6766 79.4986 30.8238 80.53 32.2172C81.5613 33.6106 82.2708 35.2154 82.6071 36.916C82.9435 38.6167 82.8984 40.3707 82.4751 42.0518C82.0518 43.7329 81.2608 45.2992 80.1592 46.6377C79.0576 47.9762 77.6727 49.0537 76.1044 49.7925C74.5362 50.5313 72.8235 50.9129 71.09 50.91C68.6777 50.9105 66.3252 50.159 64.36 48.76C62.6255 50.8974 60.4358 52.6208 57.9507 53.8045C55.4656 54.9883 52.7476 55.6025 49.995 55.6025C47.2423 55.6025 44.5244 54.9883 42.0393 53.8045C39.5542 52.6208 37.3645 50.8974 35.63 48.76C33.6685 50.1588 31.3192 50.9104 28.91 50.91C25.8016 50.91 22.8206 49.6752 20.6227 47.4773C18.4248 45.2794 17.19 42.2983 17.19 39.19C17.19 36.0817 18.4248 33.1006 20.6227 30.9027C22.8206 28.7048 25.8016 27.47 28.91 27.47Z" fill="#000000"/>
<path d="M39.93 70.78H37.59L38.76 68.78C38.8926 68.5426 38.9255 68.2623 38.8514 68.0007C38.7774 67.7391 38.6024 67.5176 38.365 67.385C38.1277 67.2524 37.8473 67.2195 37.5857 67.2936C37.3241 67.3677 37.1026 67.5426 36.97 67.78L35.8 69.78L34.64 67.78C34.5744 67.6625 34.4862 67.559 34.3806 67.4756C34.2749 67.3921 34.1539 67.3303 34.0243 67.2936C33.8948 67.2569 33.7593 67.2461 33.6256 67.2618C33.4919 67.2775 33.3626 67.3194 33.245 67.385C33.1275 67.4507 33.024 67.5388 32.9406 67.6445C32.8571 67.7501 32.7953 67.8712 32.7586 68.0007C32.7219 68.1302 32.7111 68.2657 32.7268 68.3995C32.7425 68.5332 32.7844 68.6625 32.85 68.78L34.02 70.78H31.68C31.4055 70.78 31.1423 70.8891 30.9482 71.0832C30.7541 71.2773 30.645 71.5405 30.645 71.815C30.645 72.0895 30.7541 72.3528 30.9482 72.5469C31.1423 72.741 31.4055 72.85 31.68 72.85H34L32.83 74.85C32.6974 75.0874 32.6645 75.3677 32.7386 75.6293C32.8127 75.8909 32.9876 76.1124 33.225 76.245C33.4624 76.3776 33.7427 76.4105 34.0043 76.3364C34.2659 76.2624 34.4874 76.0874 34.62 75.85L35.78 73.85L36.95 75.85C37.0826 76.0874 37.3041 76.2624 37.5657 76.3364C37.8273 76.4105 38.1077 76.3776 38.345 76.245C38.5824 76.1124 38.7574 75.8909 38.8314 75.6293C38.9055 75.3677 38.8726 75.0874 38.74 74.85L37.57 72.85H39.91C40.1845 72.85 40.4478 72.741 40.6419 72.5469C40.836 72.3528 40.945 72.0895 40.945 71.815C40.945 71.5405 40.836 71.2773 40.6419 71.0832C40.4478 70.8891 40.1845 70.78 39.91 70.78H39.93Z" fill="#000000"/>
<path d="M68.32 70.78H66L67.17 68.78C67.3026 68.5426 67.3355 68.2623 67.2614 68.0007C67.1873 67.7391 67.0123 67.5176 66.775 67.385C66.5376 67.2524 66.2573 67.2195 65.9957 67.2936C65.734 67.3677 65.5126 67.5426 65.38 67.78L64.21 69.78L63.04 67.78C62.9743 67.6631 62.8863 67.5603 62.7809 67.4775C62.6755 67.3946 62.5548 67.3334 62.4257 67.2971C62.2967 67.2609 62.1617 67.2505 62.0286 67.2664C61.8955 67.2824 61.7669 67.3244 61.65 67.39C61.5331 67.4557 61.4303 67.5437 61.3474 67.6491C61.2646 67.7545 61.2033 67.8752 61.1671 68.0042C61.1309 68.1333 61.1204 68.2683 61.1364 68.4014C61.1523 68.5345 61.1943 68.6631 61.26 68.78L62.43 70.78H60.07C59.7955 70.78 59.5322 70.8891 59.3381 71.0832C59.144 71.2773 59.035 71.5405 59.035 71.815C59.035 72.0895 59.144 72.3528 59.3381 72.5469C59.5322 72.741 59.7955 72.85 60.07 72.85H62.41L61.24 74.85C61.1743 74.9669 61.1323 75.0956 61.1164 75.2287C61.1004 75.3618 61.1109 75.4967 61.1471 75.6258C61.1833 75.7549 61.2446 75.8755 61.3274 75.9809C61.4103 76.0863 61.5131 76.1744 61.63 76.24C61.7469 76.3057 61.8755 76.3477 62.0086 76.3636C62.1417 76.3795 62.2767 76.3691 62.4057 76.3329C62.5348 76.2967 62.6555 76.2354 62.7609 76.1525C62.8663 76.0697 62.9543 75.9669 63.02 75.85L64.19 73.85L65.36 75.85C65.4926 76.0874 65.7141 76.2624 65.9757 76.3364C66.2373 76.4105 66.5176 76.3776 66.755 76.245C66.9923 76.1124 67.1673 75.8909 67.2414 75.6293C67.3155 75.3677 67.2826 75.0874 67.15 74.85L65.98 72.85H68.32C68.5945 72.85 68.8577 72.741 69.0518 72.5469C69.2459 72.3528 69.355 72.0895 69.355 71.815C69.355 71.5405 69.2459 71.2773 69.0518 71.0832C68.8577 70.8891 68.5945 70.78 68.32 70.78Z" fill="#000000"/>
<path d="M27.56 64.93H24.19L25.88 62C26.0678 61.6585 26.1143 61.257 26.0095 60.8815C25.9047 60.5061 25.657 60.1867 25.3195 59.9918C24.982 59.7969 24.5815 59.7419 24.204 59.8388C23.8265 59.9357 23.5019 60.1767 23.3 60.51L21.61 63.44L19.92 60.51C19.8312 60.3246 19.7051 60.1595 19.5494 60.0252C19.3938 59.8909 19.212 59.7902 19.0156 59.7295C18.8192 59.6689 18.6123 59.6495 18.408 59.6727C18.2037 59.6959 18.0065 59.7611 17.8286 59.8642C17.6508 59.9673 17.4962 60.1061 17.3746 60.2719C17.253 60.4376 17.167 60.6268 17.122 60.8274C17.0771 61.028 17.0741 61.2357 17.1133 61.4375C17.1526 61.6394 17.2331 61.8309 17.35 62L19 64.93H15.66C15.2621 64.93 14.8806 65.0881 14.5993 65.3694C14.318 65.6507 14.16 66.0322 14.16 66.43C14.16 66.8278 14.318 67.2094 14.5993 67.4907C14.8806 67.772 15.2621 67.93 15.66 67.93H19L17.32 70.86C17.2228 71.0288 17.1598 71.215 17.1346 71.4081C17.1094 71.6012 17.1225 71.7974 17.1731 71.9854C17.2237 72.1734 17.3108 72.3497 17.4296 72.504C17.5483 72.6584 17.6962 72.7878 17.865 72.885C18.0337 72.9822 18.22 73.0452 18.413 73.0704C18.6061 73.0956 18.8023 73.0825 18.9903 73.0319C19.1784 72.9813 19.3546 72.8942 19.509 72.7754C19.6633 72.6567 19.7928 72.5088 19.89 72.34L21.58 69.42L23.27 72.34C23.4786 72.6568 23.8002 72.8821 24.1692 72.97C24.5381 73.0579 24.9268 73.0017 25.2558 72.813C25.5848 72.6242 25.8294 72.3171 25.9398 71.9542C26.0503 71.5914 26.0181 71.2 25.85 70.86L24.19 67.9H27.56C27.9578 67.9 28.3393 67.742 28.6206 67.4607C28.9019 67.1794 29.06 66.7978 29.06 66.4C29.06 66.0022 28.9019 65.6207 28.6206 65.3394C28.3393 65.0581 27.9578 64.9 27.56 64.9V64.93Z" fill="#000000"/>
<path d="M84.34 64.93H81L82.65 62C82.7668 61.8309 82.8474 61.6394 82.8866 61.4375C82.9259 61.2357 82.9229 61.028 82.878 60.8274C82.833 60.6268 82.747 60.4376 82.6254 60.2719C82.5038 60.1061 82.3492 59.9673 82.1714 59.8642C81.9935 59.7611 81.7962 59.6959 81.5919 59.6727C81.3877 59.6495 81.1808 59.6689 80.9844 59.7295C80.7879 59.7902 80.6062 59.8909 80.4505 60.0252C80.2949 60.1595 80.1687 60.3246 80.08 60.51L78.39 63.44L76.7 60.51C76.498 60.1767 76.1735 59.9357 75.796 59.8388C75.4184 59.7419 75.018 59.7969 74.6804 59.9918C74.3429 60.1867 74.0952 60.5061 73.9904 60.8815C73.8857 61.257 73.9322 61.6585 74.12 62L75.81 64.93H72.43C72.0322 64.93 71.6506 65.0881 71.3693 65.3694C71.088 65.6507 70.93 66.0322 70.93 66.43C70.93 66.8278 71.088 67.2094 71.3693 67.4907C71.6506 67.772 72.0322 67.93 72.43 67.93H75.81L74.12 70.86C74.0081 71.0299 73.9322 71.2209 73.897 71.4212C73.8617 71.6215 73.8678 71.8269 73.9149 72.0247C73.9621 72.2226 74.0492 72.4087 74.171 72.5716C74.2927 72.7345 74.4466 72.8708 74.623 72.972C74.7994 73.0732 74.9947 73.1372 75.1968 73.1601C75.3989 73.1829 75.6035 73.1642 75.7981 73.105C75.9927 73.0458 76.1731 72.9474 76.3282 72.8158C76.4833 72.6843 76.6098 72.5223 76.7 72.34L78.39 69.42L80.08 72.34C80.1772 72.5088 80.3066 72.6567 80.461 72.7754C80.6153 72.8942 80.7916 72.9813 80.9796 73.0319C81.1677 73.0825 81.3638 73.0956 81.5569 73.0704C81.75 73.0452 81.9362 72.9822 82.105 72.885C82.2737 72.7878 82.4217 72.6584 82.5404 72.504C82.6591 72.3497 82.7463 72.1734 82.7969 71.9854C82.8475 71.7974 82.8606 71.6012 82.8354 71.4081C82.8102 71.215 82.7472 71.0288 82.65 70.86L81 67.9H84.37C84.7678 67.9 85.1493 67.742 85.4306 67.4607C85.712 67.1794 85.87 66.7978 85.87 66.4C85.87 66.0022 85.712 65.6207 85.4306 65.3394C85.1493 65.0581 84.7678 64.9 84.37 64.9L84.34 64.93Z" fill="#000000"/>
<path d="M56 78.46H52.58L54.27 75.53C54.4381 75.19 54.4703 74.7987 54.3599 74.4358C54.2495 74.0729 54.0048 73.7658 53.6758 73.577C53.3468 73.3883 52.9582 73.3322 52.5892 73.42C52.2202 73.5079 51.8986 73.7332 51.69 74.05L50 77L48.31 74.08C48.2198 73.8977 48.0933 73.7358 47.9382 73.6042C47.7831 73.4726 47.6027 73.3742 47.4081 73.315C47.2135 73.2558 47.0089 73.2371 46.8068 73.2599C46.6047 73.2828 46.4094 73.3468 46.233 73.448C46.0566 73.5492 45.9027 73.6855 45.7809 73.8484C45.6592 74.0113 45.572 74.1974 45.5249 74.3953C45.4778 74.5931 45.4717 74.7985 45.507 74.9989C45.5422 75.1992 45.6181 75.3901 45.73 75.56L47.42 78.49H44.05C43.6522 78.49 43.2706 78.648 42.9893 78.9293C42.708 79.2106 42.55 79.5922 42.55 79.99C42.55 80.3878 42.708 80.7693 42.9893 81.0506C43.2706 81.332 43.6522 81.49 44.05 81.49H47.42L45.73 84.41C45.5422 84.7515 45.4957 85.1531 45.6004 85.5285C45.7052 85.9039 45.9529 86.2233 46.2904 86.4182C46.628 86.6132 47.0284 86.6681 47.406 86.5712C47.7835 86.4743 48.108 86.2334 48.31 85.9L50 82.92L51.69 85.85C51.8919 86.1834 52.2165 86.4243 52.594 86.5212C52.9715 86.6181 53.372 86.5632 53.7095 86.3682C54.0471 86.1733 54.2948 85.8539 54.3995 85.4785C54.5043 85.103 54.4578 84.7015 54.27 84.36L52.58 81.44H56C56.3978 81.44 56.7793 81.282 57.0606 81.0007C57.342 80.7193 57.5 80.3378 57.5 79.94C57.5 79.5422 57.342 79.1606 57.0606 78.8793C56.7793 78.598 56.3978 78.44 56 78.44V78.46Z" fill="#000000"/>
</svg>
